<?xml version="1.0" standalone="no"?>
<!DOCTYPE svg PUBLIC "-//W3C//DTD SVG 20010904//EN"
 "http://www.w3.org/TR/2001/REC-SVG-20010904/DTD/svg10.dtd">
<svg version="1.0" xmlns="http://www.w3.org/2000/svg"
 width="2000.000000pt" height="1700.000000pt" viewBox="0 0 2000.000000 1700.000000"
 preserveAspectRatio="xMidYMid meet">

<g transform="translate(0.000000,1700.000000) scale(0.100000,-0.100000)"
fill="#000000" stroke="none">
<path d="M8954 16026 c-86 -20 -88 -21 -524 -293 -30 -19 -107 -66 -170 -105
-63 -39 -131 -80 -150 -93 -19 -13 -114 -71 -210 -131 -96 -59 -258 -159 -360
-222 -180 -112 -276 -171 -497 -308 -60 -37 -171 -106 -248 -154 -261 -162
-529 -328 -720 -445 -104 -64 -206 -127 -225 -140 -19 -13 -87 -54 -150 -93
-63 -39 -140 -86 -170 -105 -144 -90 -429 -266 -464 -287 -52 -31 -150 -113
-195 -163 -113 -124 -201 -321 -235 -526 -22 -127 -22 -476 -1 -592 47 -258
147 -458 296 -594 60 -53 112 -88 369 -245 96 -59 213 -131 260 -160 47 -29
164 -101 260 -160 96 -59 213 -131 260 -160 47 -29 123 -76 170 -105 47 -29
132 -81 190 -117 58 -35 177 -109 265 -163 88 -54 198 -122 245 -150 47 -29
123 -76 170 -105 47 -29 123 -76 170 -105 47 -29 132 -81 190 -117 58 -35 177
-109 265 -163 88 -54 205 -126 260 -160 55 -34 172 -106 260 -160 88 -54 205
-126 260 -160 55 -34 142 -87 194 -120 135 -83 175 -97 311 -102 100 -4 122
-2 170 16 139 53 288 237 361 448 34 98 50 202 56 353 15 410 -114 698 -382
851 -44 25 -163 94 -265 154 -102 59 -225 131 -275 160 -87 50 -195 113 -375
218 -86 50 -202 117 -365 212 -89 51 -210 121 -375 218 -93 54 -218 127 -363
210 -90 53 -208 121 -377 220 -126 74 -252 147 -369 214 -58 33 -106 64 -108
69 -3 9 44 38 324 200 51 30 135 78 185 108 51 29 176 102 278 161 177 103
249 145 460 267 52 30 178 104 280 163 102 59 227 132 278 161 243 141 283
165 367 214 50 29 132 77 183 106 50 30 135 79 187 109 52 30 137 79 188 108
200 116 241 144 306 212 110 116 176 264 206 462 28 184 15 376 -37 546 -24
79 -105 245 -163 332 -117 177 -275 251 -451 211z m221 -70 c94 -42 185 -151
276 -333 106 -210 140 -427 104 -666 -29 -196 -88 -328 -196 -442 -67 -70
-104 -95 -419 -277 -119 -69 -278 -161 -350 -203 -59 -35 -243 -142 -400 -232
-52 -31 -120 -70 -150 -88 -79 -46 -401 -233 -590 -343 -143 -82 -278 -161
-340 -197 -30 -18 -98 -57 -150 -88 -52 -30 -151 -87 -220 -127 -69 -40 -168
-97 -220 -128 -52 -30 -115 -67 -140 -82 -25 -15 -64 -38 -87 -51 -24 -12 -43
-26 -43 -30 0 -4 19 -18 43 -31 23 -14 87 -51 142 -83 55 -32 142 -82 192
-112 173 -100 278 -160 368 -213 90 -53 194 -114 367 -213 84 -49 339 -197
428 -250 42 -24 178 -103 310 -179 52 -30 163 -94 245 -142 185 -109 306 -179
433 -252 53 -31 133 -78 177 -103 44 -26 134 -78 200 -116 247 -143 358 -306
400 -590 37 -249 4 -495 -92 -690 -72 -145 -199 -279 -297 -311 -60 -20 -206
-14 -275 10 -24 9 -114 60 -200 113 -86 53 -201 124 -256 158 -55 34 -172 106
-260 160 -88 54 -205 126 -260 160 -112 69 -368 227 -520 320 -98 61 -251 155
-398 245 -41 25 -158 97 -260 160 -103 63 -220 135 -260 160 -66 41 -142 87
-376 232 -42 25 -105 64 -141 86 -36 21 -121 74 -190 117 -69 43 -154 96 -190
117 -36 22 -99 61 -141 86 -41 26 -116 72 -165 102 -256 156 -317 204 -401
313 -139 180 -204 414 -204 736 0 378 85 631 276 823 64 65 114 99 380 263
105 65 206 128 225 140 19 13 87 54 150 93 63 39 140 86 170 105 30 19 152 94
270 167 118 74 278 173 355 220 150 93 283 176 460 285 61 37 126 78 145 90
19 13 87 54 150 93 63 39 140 86 170 105 30 19 152 94 270 167 118 74 278 173
355 220 77 48 188 117 248 154 262 162 329 203 439 272 153 95 169 103 242
119 74 16 134 11 201 -19z"/>
<path d="M10712 15996 c-136 -45 -269 -181 -362 -371 -86 -176 -95 -225 -95
-490 0 -196 3 -229 23 -305 27 -101 76 -209 132 -289 70 -99 112 -130 480
-344 47 -27 126 -73 175 -102 50 -29 169 -99 265 -155 96 -56 216 -126 265
-155 50 -29 135 -78 190 -110 55 -32 136 -80 180 -106 96 -57 346 -203 470
-274 50 -29 131 -76 180 -105 50 -29 131 -77 180 -105 50 -29 131 -76 180
-105 50 -30 131 -77 180 -105 50 -29 131 -76 180 -105 50 -30 107 -63 127 -74
21 -12 38 -24 38 -27 0 -3 -51 -35 -112 -71 -269 -156 -483 -281 -623 -362
-82 -49 -166 -97 -185 -108 -162 -94 -339 -198 -405 -237 -44 -26 -129 -76
-190 -111 -60 -35 -141 -82 -180 -105 -38 -23 -119 -70 -180 -105 -60 -35
-141 -82 -180 -105 -38 -23 -113 -66 -165 -97 -52 -30 -133 -78 -180 -105
-209 -122 -284 -165 -410 -239 -182 -105 -278 -199 -344 -335 -74 -154 -88
-222 -93 -454 -4 -175 -2 -212 16 -297 32 -152 106 -316 191 -423 l31 -38 -58
-31 c-98 -53 -202 -126 -178 -126 10 0 117 57 185 98 l64 40 46 -40 c61 -54
134 -90 199 -97 l54 -6 -137 -78 c-168 -97 -192 -102 -281 -56 -36 18 -88 50
-115 71 -28 21 -56 38 -64 38 -17 0 -93 -66 -84 -75 3 -3 20 1 37 9 43 23 59
20 126 -20 94 -57 157 -84 199 -84 41 0 66 13 260 128 77 46 127 69 172 78 85
18 116 32 232 103 54 34 102 61 106 61 4 0 162 -90 352 -200 189 -110 378
-217 419 -237 41 -21 75 -41 75 -44 0 -4 -15 -13 -34 -19 -34 -11 -46 -26 -46
-59 0 -24 -24 -39 -364 -231 -332 -186 -379 -210 -423 -210 -64 0 -63 5 -63
-379 0 -191 -3 -410 -7 -487 -6 -108 -9 -30 -13 353 -4 389 -8 495 -18 505
-11 11 -16 10 -27 -6 -14 -18 -24 -14 -233 87 -120 59 -230 107 -245 107 -16
0 -30 -8 -37 -19 -13 -25 -13 -231 0 -265 11 -29 96 -87 323 -220 102 -60 155
-85 168 -81 18 6 19 1 19 -69 0 -42 -2 -76 -4 -76 -3 0 -89 41 -193 91 -103
50 -210 100 -238 111 l-50 20 -17 -22 c-15 -18 -18 -42 -18 -135 0 -63 4 -125
9 -138 17 -43 436 -297 491 -297 13 0 20 -7 20 -20 0 -24 -2 -24 -43 -4 -39
21 -831 478 -943 545 l-82 49 -6 312 c-4 172 -3 404 1 516 7 183 6 202 -8 202
-10 0 -19 -12 -23 -31 -9 -46 -7 -1012 2 -1026 4 -7 25 -20 47 -29 22 -9 66
-35 100 -59 33 -23 114 -74 180 -112 222 -131 430 -250 510 -293 109 -59 233
-142 271 -180 30 -32 31 -32 62 -16 17 9 47 16 67 16 20 0 55 10 78 21 69 36
680 381 710 401 15 11 34 35 41 53 8 19 24 36 38 40 12 4 26 13 30 19 4 6 8
63 9 126 2 186 12 201 111 152 35 -17 81 -50 102 -72 40 -43 56 -49 76 -25 8
9 30 15 57 15 53 0 45 -4 438 217 386 218 382 215 393 255 6 23 16 34 37 41
17 5 32 12 35 14 3 3 7 74 10 158 5 139 7 156 25 170 23 17 70 13 94 -9 9 -8
56 -39 105 -70 l89 -56 66 37 c63 35 776 457 931 551 122 73 110 7 110 608 l0
524 -52 34 c-29 18 -232 136 -451 261 l-398 229 28 16 c64 39 251 154 283 175
19 12 87 53 150 92 127 78 295 181 410 252 270 167 416 440 450 840 37 442
-70 807 -301 1026 -74 70 -98 86 -364 250 -165 102 -448 278 -545 338 -30 19
-116 72 -190 117 -126 78 -435 269 -560 347 -51 32 -275 171 -480 297 -47 29
-132 82 -190 118 -58 35 -181 112 -275 170 -93 58 -255 158 -360 223 -104 65
-215 133 -245 152 -30 19 -107 66 -170 105 -63 39 -131 80 -150 93 -19 12 -84
53 -145 90 -60 37 -130 80 -155 96 -95 59 -138 72 -250 76 -71 2 -119 -2 -148
-11z m227 -47 c57 -12 115 -46 751 -442 91 -56 422 -261 630 -390 107 -66 258
-160 335 -207 189 -118 480 -298 710 -440 226 -139 548 -339 625 -387 30 -19
107 -66 170 -105 63 -39 131 -80 150 -93 19 -12 85 -53 145 -90 380 -234 430
-271 512 -369 178 -217 260 -568 219 -941 -34 -307 -120 -503 -293 -665 -63
-60 -111 -93 -343 -235 -47 -28 -157 -96 -245 -150 -187 -115 -326 -200 -485
-298 -63 -39 -178 -109 -255 -157 -77 -48 -192 -118 -255 -157 -63 -39 -176
-108 -250 -154 -180 -110 -321 -197 -460 -282 -63 -39 -131 -80 -150 -92 -38
-25 -212 -131 -545 -335 -66 -40 -136 -83 -155 -95 -33 -21 -89 -56 -365 -225
-60 -37 -169 -104 -241 -149 -159 -98 -194 -112 -310 -118 -82 -5 -97 -3 -145
19 -158 73 -312 306 -369 559 -19 83 -21 116 -17 279 5 212 21 291 87 426 54
111 154 218 269 286 81 48 254 149 471 275 153 89 280 164 355 208 39 23 120
70 180 105 61 35 142 82 180 105 77 46 207 122 360 210 55 32 136 79 180 105
78 46 141 83 350 205 55 32 136 79 180 105 101 59 302 176 425 248 171 100
265 155 270 160 3 3 -1 7 -7 9 -7 3 -52 28 -100 57 -49 29 -160 94 -248 146
-88 51 -198 115 -245 143 -47 27 -125 73 -175 102 -49 28 -130 76 -180 105
-49 29 -130 76 -180 105 -87 50 -296 172 -480 280 -49 29 -130 76 -180 105
-49 29 -130 76 -180 105 -49 29 -130 76 -180 105 -49 29 -130 76 -180 105 -49
30 -157 93 -240 141 -82 48 -186 108 -230 134 -44 26 -113 66 -153 90 -176
103 -284 264 -333 497 -18 85 -20 122 -16 278 5 195 18 261 72 385 81 185 221
338 349 382 58 20 142 23 215 7z m3290 -5031 c438 -250 533 -307 549 -326 15
-19 18 -975 3 -1015 -12 -30 -162 -124 -356 -222 -77 -40 -167 -88 -200 -108
-33 -20 -68 -37 -78 -37 -10 0 -22 -11 -26 -24 -10 -25 -65 -62 -269 -179
l-132 -77 -138 82 c-75 44 -145 88 -154 96 -16 14 -18 43 -18 331 0 174 -4
321 -8 327 -4 6 -63 41 -132 76 -109 57 -322 178 -658 375 l-93 54 123 76 c68
42 146 90 173 108 28 17 91 56 140 87 95 58 248 151 430 263 61 37 126 77 145
90 19 12 89 55 155 95 66 40 136 83 155 96 19 12 39 23 44 23 5 1 160 -85 345
-191z m-1467 -841 c260 -150 434 -248 548 -308 50 -27 57 -42 20 -47 -34 -5
-47 -17 -53 -51 -8 -37 -34 -55 -287 -198 -415 -235 -472 -264 -507 -259 -25
4 -35 0 -43 -13 -5 -11 -13 -224 -17 -502 -8 -478 -8 -481 -14 -239 -3 135 -7
356 -8 491 -1 200 -4 249 -16 265 -14 19 -15 19 -21 -3 -3 -13 -11 -23 -16
-23 -6 0 -108 47 -228 105 -120 58 -226 105 -237 105 -32 0 -43 -22 -49 -104
-4 -42 -9 -76 -12 -76 -5 0 -351 199 -465 267 l-58 35 123 76 c68 41 170 104
228 140 58 35 121 74 140 87 19 12 89 55 155 95 199 122 284 174 405 249 63
39 118 71 122 71 4 0 135 -73 290 -163z m598 -868 c0 -460 -1 -479 -19 -479
-16 0 -19 11 -24 83 -4 45 -7 256 -7 469 0 339 2 389 16 402 8 9 20 14 25 11
5 -4 9 -205 9 -486z m-1325 59 c6 -5 -13 0 -41 10 -28 11 -55 17 -61 14 -6 -4
-14 -31 -18 -61 -10 -74 -25 -46 -25 47 l0 74 68 -37 c37 -20 72 -41 77 -47z
m25 -68 c24 -7 93 -36 153 -66 70 -36 115 -53 128 -49 18 6 19 1 19 -89 0 -53
-2 -96 -5 -96 -3 0 -34 24 -68 53 -88 75 -152 117 -211 139 -28 11 -59 27 -70
36 -37 34 -43 98 -7 88 9 -3 36 -10 61 -16z m430 -487 c0 -436 -8 -573 -23
-441 -9 69 -9 733 -1 831 16 182 24 45 24 -390z m780 398 c0 -56 -2 -60 -32
-79 -55 -33 -696 -382 -702 -382 -3 0 -6 26 -6 58 0 44 5 63 18 74 9 9 139 82
287 163 149 81 302 165 340 186 39 21 76 39 83 39 8 0 12 -18 12 -59z m-1165
-618 c-7 -440 -13 -519 -36 -496 -11 11 -17 933 -6 951 5 6 17 12 29 12 20 0
20 -1 13 -467z m142 356 c40 -22 80 -38 88 -36 23 10 33 -51 19 -122 l-7 -31
-89 47 c-93 49 -108 67 -108 123 0 30 9 60 17 60 3 0 39 -18 80 -41z m1033
-184 c0 -44 -1 -44 -385 -257 -369 -205 -364 -202 -371 -183 -11 29 6 65 44
88 84 53 688 387 699 387 8 0 13 -14 13 -35z m-950 -95 l30 0 0 -79 c0 -44 -3
-86 -6 -95 -4 -11 -30 6 -105 71 -82 70 -99 90 -99 113 0 60 6 62 81 25 38
-19 82 -35 99 -35z m-1540 -35 c0 -2 -25 5 -57 16 -31 10 -60 19 -65 19 -4 0
-8 -36 -8 -79 0 -93 8 -106 95 -156 33 -19 56 -35 51 -35 -16 0 -131 67 -149
88 -14 15 -19 44 -24 127 l-6 107 81 -41 c45 -23 82 -43 82 -46z m22 -66 c33
-11 100 -40 149 -65 49 -24 99 -46 111 -48 22 -3 23 -8 26 -101 l3 -98 -61 56
c-82 77 -177 143 -222 155 -63 17 -98 48 -98 88 0 41 7 42 92 13z m421 -116
c4 -54 7 -226 7 -383 0 -306 -8 -480 -22 -480 -4 0 -8 216 -8 480 0 454 9 601
23 383z m787 37 c0 -38 -5 -54 -22 -69 -29 -28 -691 -391 -712 -391 -12 0 -16
10 -16 43 0 23 3 51 6 62 4 14 97 70 317 189 172 93 330 180 352 193 63 36 75
32 75 -27z m222 -56 c35 -22 73 -37 89 -36 29 1 40 -20 18 -33 -9 -6 -157 72
-183 96 -24 22 22 6 76 -27z m-1531 -270 c78 -39 87 -53 19 -29 -63 22 -71 11
-68 -88 l3 -81 75 -39 c41 -21 64 -36 50 -32 -37 11 -117 55 -136 77 -13 14
-18 44 -22 123 -3 58 -2 105 2 105 4 0 38 -16 77 -36z m139 -124 c25 -10 79
-36 120 -59 41 -22 87 -41 103 -41 l27 0 0 -102 0 -101 -62 60 c-74 71 -190
149 -235 158 -46 9 -83 47 -83 85 0 32 0 32 43 25 23 -4 62 -15 87 -25z m1170
-4 c0 -31 -6 -38 -65 -75 -75 -47 -530 -303 -622 -350 -66 -33 -79 -30 -68 17
4 19 23 38 63 64 89 57 666 378 680 378 7 0 12 -13 12 -34z"/>
<path d="M14677 10304 c-8 -8 1 -24 14 -24 5 0 9 7 9 15 0 15 -12 20 -23 9z"/>
<path d="M14239 10059 c-222 -127 -410 -236 -416 -241 -18 -15 -19 -558 -1
-558 6 0 45 17 85 38 83 42 93 38 93 -30 0 -48 11 -53 56 -28 35 18 39 18 56
3 17 -15 23 -13 100 32 46 27 95 56 110 64 27 15 28 20 28 94 l0 77 51 31 c57
36 69 58 69 134 l0 54 85 46 c47 26 87 50 89 53 9 17 18 462 8 462 -5 0 -191
-104 -413 -231z"/>
<path d="M12670 9930 c-11 -11 -20 -24 -20 -30 0 -17 98 -88 180 -130 43 -23
85 -49 95 -60 15 -17 15 -19 -5 -25 -34 -11 -144 23 -263 81 -62 30 -128 57
-147 60 -41 6 -77 -14 -67 -39 12 -31 382 -226 445 -234 35 -5 54 0 108 28 36
19 83 49 103 66 l36 33 -35 33 c-42 39 -370 237 -393 237 -9 0 -26 -9 -37 -20z"/>
<path d="M12248 9696 c-10 -7 -18 -20 -18 -29 0 -23 92 -93 170 -131 113 -55
134 -77 90 -91 -32 -10 -125 21 -274 92 -132 64 -140 66 -165 52 -63 -35 -46
-50 211 -184 222 -116 200 -112 305 -61 98 48 146 87 137 110 -10 27 -391 256
-424 256 -8 0 -23 -7 -32 -14z"/>
<path d="M9910 14052 c-21 -17 -21 -23 -18 -197 l3 -180 -187 3 c-128 2 -194
0 -209 -8 -15 -9 -24 -9 -32 -1 -7 7 -76 11 -198 11 -236 0 -219 16 -219 -203
0 -97 4 -166 11 -179 10 -19 9 -20 -7 -12 -11 5 -98 10 -195 12 -240 4 -224
19 -224 -217 l0 -181 -95 0 c-107 0 -134 -10 -167 -59 -21 -30 -23 -46 -23
-147 0 -357 123 -707 317 -900 128 -129 288 -200 563 -251 76 -14 148 -18 355
-18 244 0 269 2 410 29 475 90 835 320 1085 693 66 98 202 360 215 414 6 25
11 26 84 32 88 7 189 41 263 88 93 60 186 186 204 276 5 26 2 36 -20 57 -67
61 -189 96 -336 96 l-106 0 -17 53 c-36 113 -115 217 -221 288 -99 66 -136 50
-201 -86 -54 -113 -69 -177 -68 -295 1 -80 6 -119 22 -164 12 -33 19 -61 16
-64 -7 -7 -118 -32 -145 -32 l-25 0 3 162 c2 90 1 172 -2 184 -10 38 -50 45
-232 42 -93 -2 -177 -7 -188 -12 -16 -8 -17 -7 -7 13 8 15 11 73 8 189 -6 199
-6 151 0 364 5 234 22 218 -216 218 -156 0 -182 -2 -201 -18z m369 -36 c8 -9
11 -61 9 -162 l-3 -149 -175 0 -175 0 -3 154 c-2 117 1 156 10 163 7 4 83 8
169 8 121 0 159 -3 168 -14z m-834 -541 l0 -160 -175 0 -175 0 -3 150 c-1 82
0 155 2 162 4 11 43 13 178 11 l173 -3 0 -160z m420 0 l0 -160 -169 -3 c-129
-2 -171 1 -178 10 -9 15 -11 279 -2 302 6 14 28 16 178 14 l171 -3 0 -160z
m420 0 l0 -160 -175 0 -175 0 -3 150 c-1 82 0 155 2 162 4 11 43 13 178 11
l173 -3 0 -160z m826 47 c58 -37 153 -142 183 -200 13 -26 31 -72 41 -102 l17
-55 142 0 142 0 80 -40 c48 -25 80 -47 82 -58 6 -33 -49 -128 -109 -188 -92
-92 -233 -149 -369 -149 l-45 0 -24 -62 c-63 -164 -195 -395 -290 -508 -163
-195 -303 -308 -509 -409 -251 -124 -480 -178 -797 -188 -412 -13 -745 70
-922 231 -204 185 -326 496 -340 861 l-6 141 32 32 33 32 1136 0 c1196 0 1251
2 1360 45 l38 16 -29 59 c-55 111 -49 300 14 439 30 65 74 131 88 131 4 0 27
-13 52 -28z m-2077 -288 c12 -31 7 -289 -6 -302 -8 -8 -61 -12 -175 -12 -150
0 -163 1 -173 19 -11 21 -14 268 -4 295 5 14 31 16 179 16 148 0 174 -2 179
-16z m414 -138 c2 -101 -1 -153 -9 -162 -15 -19 -319 -20 -337 -2 -13 13 -18
299 -5 312 4 3 84 5 177 4 l171 -3 3 -149z m422 -5 c0 -136 -2 -160 -16 -165
-31 -12 -319 -7 -332 6 -13 13 -18 299 -5 311 3 4 84 7 180 7 l173 0 0 -159z
m418 5 c2 -101 -1 -153 -9 -162 -9 -11 -46 -14 -164 -14 -85 0 -160 3 -169 6
-14 5 -16 29 -16 158 0 84 3 156 7 160 4 3 84 5 177 4 l171 -3 3 -149z m420 0
c2 -101 -1 -153 -9 -162 -9 -11 -46 -14 -164 -14 -85 0 -160 3 -169 6 -14 5
-16 29 -16 158 0 84 3 156 7 160 4 3 84 5 177 4 l171 -3 3 -149z"/>
<path d="M5012 11240 c-72 -13 -219 -70 -284 -109 -144 -87 -244 -223 -315
-428 -24 -69 -27 -93 -27 -208 0 -95 5 -148 18 -195 29 -106 91 -213 170 -296
66 -68 246 -186 2456 -1610 1312 -846 2409 -1553 2439 -1571 60 -36 91 -41
115 -17 14 14 16 105 16 849 0 779 -1 834 -17 853 -14 16 -3865 2506 -4103
2653 -80 49 -193 80 -310 84 -58 2 -129 0 -158 -5z m323 -75 c61 -20 141 -67
361 -208 155 -100 1086 -699 2068 -1332 l1785 -1150 0 -818 1 -819 -32 19
c-18 11 -1113 716 -2433 1567 -2222 1432 -2405 1552 -2471 1620 -124 130 -177
263 -178 446 0 119 17 193 72 304 63 131 137 217 244 286 64 42 202 95 282
110 85 15 214 5 301 -25z"/>
<path d="M11423 9214 c-7 -3 -13 -19 -13 -35 0 -36 69 -94 174 -145 101 -50
116 -66 76 -79 -35 -11 -141 23 -265 85 -123 62 -172 73 -196 44 -27 -33 5
-56 261 -185 92 -47 167 -79 185 -79 30 0 142 52 197 91 59 43 46 57 -195 203
-150 92 -196 112 -224 100z"/>
<path d="M5012 9060 c-72 -13 -219 -70 -284 -109 -144 -87 -244 -223 -315
-428 -24 -69 -27 -93 -27 -208 0 -95 5 -148 18 -195 29 -106 91 -213 170 -296
66 -68 246 -186 2456 -1610 1312 -846 2409 -1553 2439 -1571 60 -36 91 -41
115 -17 14 14 16 105 16 849 0 779 -1 834 -17 853 -14 16 -3865 2506 -4103
2653 -80 49 -193 80 -310 84 -58 2 -129 0 -158 -5z m323 -75 c61 -20 141 -67
361 -208 155 -100 1086 -699 2068 -1332 l1785 -1150 0 -818 1 -819 -32 19
c-18 11 -1113 716 -2433 1567 -2222 1432 -2405 1552 -2471 1620 -124 130 -177
263 -178 446 0 119 17 193 72 304 63 131 137 217 244 286 64 42 202 95 282
110 85 15 214 5 301 -25z"/>
<path d="M10987 8962 c-10 -10 -17 -23 -17 -29 0 -17 106 -92 189 -135 95 -49
108 -60 86 -78 -25 -21 -98 1 -257 76 -76 36 -152 66 -169 66 -39 1 -68 -26
-53 -50 16 -25 423 -231 458 -232 30 0 159 66 204 105 22 20 25 27 16 42 -21
35 -382 253 -420 253 -11 0 -28 -8 -37 -18z"/>
<path d="M14318 8705 c-93 -24 -168 -63 -478 -250 -666 -402 -934 -563 -1095
-660 -93 -56 -366 -220 -605 -365 -239 -145 -478 -289 -530 -320 -52 -31 -347
-209 -655 -395 -308 -186 -590 -356 -628 -378 -37 -21 -72 -47 -77 -57 -6 -12
-10 -320 -10 -839 0 -732 2 -821 16 -835 8 -9 24 -16 35 -16 11 0 176 94 367
209 315 190 673 405 1362 821 135 81 441 266 680 410 429 259 977 590 1260
760 468 282 912 551 960 582 156 100 255 264 286 475 32 210 -1 363 -117 544
-93 145 -231 248 -409 306 -66 21 -291 26 -362 8z m370 -68 c219 -76 385 -255
458 -494 24 -77 24 -251 0 -348 -30 -123 -79 -210 -170 -300 -73 -72 -117
-102 -431 -290 -368 -220 -526 -315 -1155 -695 -212 -128 -506 -305 -655 -395
-148 -89 -466 -281 -705 -425 -239 -145 -556 -336 -705 -425 -148 -90 -387
-234 -530 -320 -143 -87 -285 -172 -315 -190 -30 -17 -85 -50 -123 -73 l-67
-42 2 807 3 807 405 244 c223 134 504 304 625 376 121 73 461 278 755 456 294
178 578 349 630 380 83 50 364 219 1238 747 327 197 375 215 557 209 86 -3
126 -9 183 -29z"/>
<path d="M2746 3754 c-14 -13 -16 -50 -16 -244 0 -194 2 -231 16 -244 23 -24
375 -24 398 0 24 23 24 465 0 488 -13 13 -45 16 -199 16 -154 0 -186 -3 -199
-16z m364 -244 l0 -210 -165 0 -165 0 0 210 0 210 165 0 165 0 0 -210z"/>
<path d="M19356 3754 c-14 -14 -16 -72 -16 -486 l0 -470 -38 34 c-88 80 -191
136 -309 170 -105 30 -371 33 -473 4 -310 -86 -545 -366 -625 -744 -22 -106
-37 -324 -30 -437 23 -359 122 -607 321 -802 69 -68 102 -91 186 -133 142 -70
212 -83 413 -77 129 3 173 8 230 27 102 32 195 84 264 147 l61 55 0 -75 c0
-110 -6 -107 215 -107 154 0 186 3 199 16 14 14 16 158 16 1439 0 1281 -2
1425 -16 1439 -13 13 -45 16 -199 16 -154 0 -186 -3 -199 -16z m374 -1439 l0
-1405 -170 0 -170 0 0 147 0 148 -34 -50 c-56 -84 -153 -171 -237 -215 -118
-61 -209 -82 -364 -83 -156 -1 -233 16 -355 75 -111 55 -254 193 -324 313
-120 206 -176 465 -162 745 17 347 113 592 305 780 143 141 282 199 492 207
290 12 507 -88 645 -297 l29 -44 3 542 2 542 170 0 170 0 0 -1405z"/>
<path d="M18715 2690 c-246 -51 -404 -264 -445 -600 -29 -239 2 -472 86 -647
76 -159 196 -260 346 -293 81 -18 238 -8 310 19 121 47 233 159 293 294 87
199 107 528 45 772 -45 179 -155 337 -279 404 -99 53 -245 73 -356 51z m238
-59 c213 -59 346 -267 379 -593 21 -204 -10 -412 -82 -563 -120 -249 -355
-348 -605 -254 -112 42 -231 182 -279 327 -45 138 -51 187 -50 382 1 166 3
195 27 282 14 54 43 130 64 170 43 83 136 184 201 217 102 52 230 64 345 32z"/>
<path d="M11464 3742 c-164 -58 -269 -197 -281 -371 l-6 -78 -231 -133 c-460
-266 -535 -309 -771 -445 -250 -144 -326 -188 -715 -413 -645 -373 -683 -393
-691 -380 -11 17 -11 26 1 147 49 478 404 873 870 968 81 17 303 23 360 10 27
-6 42 -19 65 -55 21 -33 47 -56 85 -77 49 -27 64 -30 140 -30 75 0 91 3 138
29 92 52 132 124 132 241 0 126 -44 199 -147 247 -56 27 -72 30 -136 26 -54
-2 -86 -10 -124 -29 -45 -24 -55 -26 -104 -17 -87 15 -344 11 -439 -6 -333
-60 -643 -234 -842 -473 -159 -190 -254 -385 -310 -634 -20 -90 -23 -130 -23
-299 1 -212 18 -328 71 -468 25 -69 44 -92 76 -92 10 0 110 53 221 117 111 64
333 192 492 284 160 92 360 207 445 256 611 353 770 445 880 508 69 40 170 98
225 130 55 32 174 101 265 153 91 52 182 105 203 117 l39 23 41 -23 c74 -41
153 -58 241 -52 66 4 93 12 162 46 96 48 141 94 187 191 27 55 32 79 35 160 6
152 -30 244 -133 338 -77 71 -144 95 -270 99 -77 3 -112 -1 -151 -15z m317
-74 c138 -73 214 -228 189 -386 -13 -81 -39 -132 -101 -198 -97 -102 -246
-139 -379 -94 -36 12 -80 33 -98 46 l-32 25 -243 -139 c-133 -77 -298 -173
-367 -212 -124 -72 -412 -238 -650 -375 -69 -40 -170 -98 -225 -130 -55 -32
-156 -91 -225 -130 -69 -40 -168 -97 -220 -127 -594 -344 -851 -490 -855 -486
-14 16 -57 167 -74 259 -66 358 15 735 223 1039 109 160 328 350 504 439 258
130 553 175 835 129 58 -9 70 -9 85 5 31 28 89 47 144 47 144 -1 245 -127 218
-270 -27 -142 -183 -221 -315 -161 -43 19 -115 92 -115 115 0 19 -16 23 -130
36 -246 28 -526 -45 -744 -193 -81 -55 -196 -166 -261 -253 -107 -142 -180
-309 -210 -483 -15 -82 -21 -305 -9 -335 4 -12 22 -5 87 33 45 27 156 91 247
143 91 52 239 138 330 190 155 90 229 132 453 261 50 30 184 107 297 172 341
197 494 285 745 430 132 76 264 153 293 169 l53 31 2 85 c2 73 7 95 35 152 36
74 104 143 176 177 96 47 238 42 337 -11z"/>
<path d="M11566 3470 c-62 -19 -104 -89 -92 -155 13 -69 92 -118 163 -101 39
10 90 67 98 109 17 91 -79 174 -169 147z m90 -74 c19 -19 34 -44 34 -56 0 -30
-53 -80 -85 -80 -29 0 -85 48 -85 74 0 41 50 95 89 96 7 0 28 -15 47 -34z"/>
<path d="M341 3641 l-21 -21 0 -1364 c0 -1227 2 -1366 16 -1380 23 -24 415
-24 438 0 14 14 16 76 16 539 l0 523 313 5 c258 4 328 9 407 25 193 41 327
108 441 221 95 95 160 218 189 363 24 115 27 359 6 470 -65 338 -286 542 -666
614 -69 13 -185 17 -601 21 -516 5 -517 5 -538 -16z m1136 -55 c316 -62 520
-231 602 -499 63 -207 46 -503 -40 -684 -107 -226 -327 -363 -644 -402 -49 -6
-217 -11 -372 -11 l-283 0 0 -540 0 -540 -185 0 -185 0 0 1351 0 1351 513 -5
c418 -4 527 -7 594 -21z"/>
<path d="M740 2794 l0 -507 288 6 c308 6 355 12 460 63 71 35 151 115 186 188
38 79 59 201 52 296 -18 227 -113 358 -312 432 -55 20 -80 22 -366 26 l-308 4
0 -508z m508 456 c285 -27 428 -179 426 -455 -1 -154 -38 -250 -129 -334 -104
-96 -211 -120 -532 -121 l-223 0 0 460 0 460 183 0 c100 0 224 -5 275 -10z"/>
<path d="M5480 3640 c-20 -20 -20 -33 -20 -1384 0 -1227 2 -1366 16 -1380 23
-24 415 -24 438 0 14 14 16 86 16 640 l0 624 610 0 610 0 0 -624 c0 -554 2
-626 16 -640 23 -24 415 -24 438 0 14 14 16 153 16 1380 0 1351 0 1364 -20
1384 -19 19 -33 20 -215 20 -182 0 -196 -1 -215 -20 -20 -20 -20 -33 -20 -555
l0 -535 -610 0 -610 0 0 535 c0 522 0 535 -20 555 -19 19 -33 20 -215 20 -182
0 -196 -1 -215 -20z m400 -585 l0 -555 660 0 660 0 0 555 0 555 185 0 185 0 0
-1350 0 -1350 -185 0 -185 0 0 640 0 640 -660 0 -660 0 0 -640 0 -640 -185 0
-185 0 0 1350 0 1350 185 0 185 0 0 -555z"/>
<path d="M14110 3540 c-19 -19 -20 -33 -20 -290 l0 -270 -104 0 c-82 0 -108
-3 -120 -16 -23 -23 -23 -305 0 -328 12 -13 38 -16 120 -16 l104 0 0 -547 c0
-687 8 -787 80 -940 42 -91 104 -152 198 -197 131 -61 181 -68 513 -73 266 -4
297 -3 312 12 24 24 25 325 1 349 -13 14 -49 16 -239 16 -257 0 -313 8 -362
54 -60 55 -63 91 -63 749 l0 577 324 0 c282 0 327 2 340 16 13 13 16 42 16
164 0 122 -3 151 -16 164 -13 14 -58 16 -340 16 l-324 0 0 270 c0 257 -1 271
-20 290 -19 19 -33 20 -200 20 -167 0 -181 -1 -200 -20z m370 -320 l0 -290
345 0 346 0 -3 -127 -3 -128 -342 -3 -343 -2 0 -593 c0 -339 5 -621 10 -661
19 -127 54 -177 150 -208 20 -6 143 -14 280 -17 l245 -6 3 -137 3 -138 -253 0
c-139 0 -282 5 -318 10 -234 37 -353 126 -414 310 -41 126 -46 217 -46 848 l0
592 -120 0 -120 0 0 130 0 130 120 0 120 0 0 290 0 290 170 0 170 0 0 -290z"/>
<path d="M12397 3014 c-307 -47 -510 -207 -572 -449 -20 -78 -20 -281 0 -358
39 -151 124 -254 271 -329 111 -57 201 -86 427 -138 398 -93 478 -147 465
-321 -3 -47 -11 -66 -34 -96 -42 -53 -123 -99 -208 -119 -92 -21 -281 -21
-401 1 -105 19 -291 79 -401 130 -148 68 -154 61 -154 -185 0 -152 3 -191 15
-203 28 -29 286 -96 475 -123 176 -25 491 -16 621 19 277 73 448 220 515 442
25 83 25 286 0 370 -28 95 -74 171 -141 233 -111 105 -267 170 -560 237 -308
69 -425 119 -466 195 -37 68 -15 173 47 232 139 130 545 131 852 2 179 -74
182 -72 182 157 0 96 -4 179 -10 189 -12 22 -149 69 -275 94 -183 37 -482 46
-648 20z m478 -44 c115 -14 208 -33 318 -66 l87 -27 0 -159 c0 -87 -2 -158 -4
-158 -2 0 -26 9 -53 21 -26 12 -86 34 -132 50 -289 99 -668 87 -816 -25 -76
-58 -116 -188 -85 -280 37 -114 141 -165 498 -246 197 -45 297 -77 397 -125
190 -92 287 -234 302 -439 13 -180 -39 -322 -162 -442 -243 -239 -720 -286
-1280 -126 l-100 29 -3 176 -2 176 92 -44 c110 -51 241 -96 358 -121 65 -15
127 -19 265 -19 159 0 188 3 251 22 92 29 161 77 199 138 28 45 30 56 30 139
0 81 -3 96 -27 137 -53 90 -154 134 -494 213 -357 84 -492 153 -586 299 -52
81 -71 157 -72 287 0 129 15 195 66 293 57 106 199 214 343 261 135 43 406 59
610 36z"/>
<path d="M16660 3024 c-150 -23 -240 -49 -345 -102 -277 -137 -459 -399 -520
-748 -24 -134 -24 -405 -1 -529 87 -463 397 -759 864 -826 129 -18 451 -7 587
20 136 28 382 108 406 132 17 17 19 37 19 193 0 232 -7 239 -162 166 -207 -97
-377 -134 -603 -134 -178 0 -241 12 -355 67 -83 40 -193 149 -238 234 -30 58
-82 230 -82 274 0 18 24 19 744 19 664 0 746 2 760 16 33 33 17 388 -24 551
-92 358 -344 597 -697 658 -77 14 -286 19 -353 9z m435 -78 c222 -67 383 -200
489 -406 83 -160 116 -320 116 -557 l0 -143 -763 0 -763 0 8 -72 c38 -321 199
-524 476 -600 106 -29 353 -31 497 -4 115 21 266 69 378 120 43 20 80 36 83
36 2 0 4 -70 4 -155 l0 -156 -47 -20 c-226 -97 -572 -152 -816 -130 -289 26
-496 118 -669 299 -125 131 -206 292 -245 489 -23 119 -23 392 0 520 67 366
283 639 596 753 132 49 214 60 401 56 144 -3 177 -7 255 -30z"/>
<path d="M16729 2690 c-213 -21 -383 -134 -467 -312 -42 -86 -72 -191 -72
-246 l0 -32 585 0 585 0 0 53 c0 30 -9 88 -19 129 -75 291 -296 439 -612 408z
m253 -70 c142 -44 264 -177 307 -337 11 -44 21 -91 21 -106 l0 -27 -535 0
-535 0 6 28 c14 66 47 160 70 199 34 59 116 146 172 182 134 86 334 111 494
61z"/>
<path d="M2746 2964 c-14 -14 -16 -122 -16 -1044 0 -922 2 -1030 16 -1044 23
-24 375 -24 398 0 14 14 16 122 16 1044 0 922 -2 1030 -16 1044 -13 13 -45 16
-199 16 -154 0 -186 -3 -199 -16z m364 -1044 l0 -1010 -165 0 -165 0 0 1010 0
1010 165 0 165 0 0 -1010z"/>
<path d="M10945 2448 c-77 -44 -212 -122 -300 -173 -88 -51 -205 -118 -260
-150 -105 -61 -439 -254 -710 -410 -88 -51 -205 -118 -260 -150 -55 -32 -158
-92 -230 -133 -71 -41 -173 -100 -225 -130 -52 -30 -169 -98 -260 -150 -91
-53 -194 -113 -230 -134 -36 -21 -84 -48 -107 -60 l-42 -21 -73 33 c-220 102
-482 2 -570 -217 -19 -48 -23 -77 -23 -168 0 -103 2 -114 32 -177 41 -88 113
-160 201 -201 63 -30 73 -32 182 -32 103 1 121 3 173 28 76 34 130 78 169 134
44 65 78 166 78 238 l0 60 238 137 c130 75 334 192 452 260 118 69 321 186
450 260 129 75 289 167 355 205 864 499 939 542 943 538 10 -10 2 -161 -13
-245 -45 -261 -185 -495 -398 -665 -224 -179 -502 -259 -795 -229 -55 6 -62 9
-73 37 -21 51 -61 89 -124 118 -83 40 -158 40 -240 0 -108 -51 -154 -126 -155
-247 0 -121 67 -224 169 -260 61 -22 168 -17 227 10 46 21 57 23 100 13 27 -5
130 -10 229 -10 209 0 319 18 495 84 468 176 780 544 896 1059 24 105 24 432
1 544 -26 122 -66 245 -87 266 -33 33 -68 23 -215 -62z m209 -47 c50 -159 61
-234 61 -426 0 -197 -12 -275 -66 -440 -46 -139 -138 -309 -226 -420 -56 -70
-191 -198 -264 -250 -158 -114 -351 -200 -529 -236 -138 -28 -341 -35 -467
-15 l-102 15 -53 -27 c-104 -54 -222 -24 -291 75 -108 152 15 365 202 351 83
-6 147 -46 181 -114 29 -59 32 -60 200 -70 75 -5 138 -2 218 10 482 71 864
446 947 930 16 94 20 302 6 324 -6 10 -50 -11 -177 -84 -167 -96 -189 -109
-374 -216 -52 -30 -187 -108 -300 -173 -445 -257 -635 -367 -860 -497 -129
-74 -291 -168 -360 -208 -69 -40 -200 -115 -291 -168 l-167 -96 -4 -87 c-5
-111 -43 -195 -121 -265 -71 -65 -125 -87 -223 -92 -137 -7 -242 40 -323 145
-90 117 -95 306 -12 426 117 170 345 218 513 107 l46 -30 73 43 c41 24 166 97
279 162 113 65 248 143 300 173 52 30 151 87 220 127 69 39 170 98 225 130 55
32 174 101 265 153 91 52 190 109 220 127 30 18 132 76 225 130 94 54 195 112
225 130 30 18 129 75 220 127 219 126 411 237 485 281 33 19 63 33 67 31 4 -3
19 -40 32 -83z"/>
<path d="M8014 710 c-11 -4 -33 -22 -47 -40 -22 -25 -27 -42 -27 -82 0 -45 4
-54 39 -89 35 -35 44 -39 90 -39 44 0 56 5 87 33 65 59 56 162 -19 207 -33 21
-87 25 -123 10z m110 -66 c42 -43 32 -100 -24 -129 -64 -33 -138 41 -105 105
29 56 86 66 129 24z"/>
</g>
</svg>
